<?xml version="1.0" encoding="UTF-8" standalone="no"?>
<!-- Created with Inkscape (http://www.inkscape.org/) -->

<svg
   width="144mm"
   height="30mm"
   viewBox="0 0 144 30"
   version="1.1"
   id="svg1"
   inkscape:export-filename="getinstamedia.svg"
   inkscape:export-xdpi="84.669998"
   inkscape:export-ydpi="84.669998"
   inkscape:version="1.3.2 (091e20e, 2023-11-25, custom)"
   sodipodi:docname="getinstamedia.svg"
   xmlns:inkscape="http://www.inkscape.org/namespaces/inkscape"
   xmlns:sodipodi="http://sodipodi.sourceforge.net/DTD/sodipodi-0.dtd"
   xmlns="http://www.w3.org/2000/svg"
   xmlns:svg="http://www.w3.org/2000/svg">
  <sodipodi:namedview
     id="namedview1"
     pagecolor="#ffffff"
     bordercolor="#000000"
     borderopacity="0.25"
     inkscape:showpageshadow="2"
     inkscape:pageopacity="0.0"
     inkscape:pagecheckerboard="0"
     inkscape:deskcolor="#d1d1d1"
     inkscape:document-units="mm"
     inkscape:zoom="1.3843855"
     inkscape:cx="396.92701"
     inkscape:cy="96.432676"
     inkscape:window-width="1920"
     inkscape:window-height="991"
     inkscape:window-x="2391"
     inkscape:window-y="-9"
     inkscape:window-maximized="1"
     inkscape:current-layer="layer1" />
  <defs
     id="defs1" />
  <g
     inkscape:label="Слой 1"
     inkscape:groupmode="layer"
     id="layer1">
    <path
       id="rect4"
       style="fill:#f0f0f0;stroke-width:0.264583"
       d="M 49.787659 0.56017253 C 48.77166 0.56017253 47.509942 0.8904104 46.002877 1.5508097 C 44.495812 2.2112091 43.048521 3.0409978 41.659989 4.0400635 C 41.024225 4.4897505 40.434369 4.9792366 39.880253 5.4999227 L 39.907125 5.4621989 C 40.042591 5.2420658 40.110213 5.089529 40.110213 5.0048625 C 40.110213 4.7508627 39.805657 4.6240072 39.196057 4.6240072 C 38.586458 4.6240072 38.230539 4.7256983 38.128939 4.9288981 L 36.376591 7.2657064 C 34.141393 7.4350395 32.14319 7.64681 30.382125 7.9008097 C 28.637993 8.1548095 27.706513 8.2900532 27.58798 8.3069865 C 27.469447 8.3239198 27.385049 8.3412128 27.334249 8.3581462 C 27.283449 8.3581462 27.224215 8.3665343 27.156482 8.3834676 C 27.088749 8.3834676 27.054679 8.4170202 27.054679 8.4847534 C 27.054679 8.6879532 27.317295 8.8404899 27.842228 8.9420898 C 27.909961 9.4500893 29.069988 9.7043172 31.322119 9.7043172 L 32.922021 9.6531576 C 33.277621 9.6531576 33.455322 9.7040031 33.455322 9.805603 C 33.455322 9.9072029 33.379312 10.017282 33.226912 10.135815 C 31.975095 11.244195 30.928943 12.332002 30.078784 13.400216 C 28.230379 14.663645 26.617633 15.694766 25.454777 16.282727 C 23.947712 17.027793 22.550234 17.400488 21.263302 17.400488 C 21.060102 17.332755 20.958927 17.163442 20.958927 16.892509 C 20.958927 16.604643 21.094171 16.240335 21.365104 15.800069 C 21.636037 15.34287 21.831031 15.114323 21.949565 15.114323 C 22.068098 15.114323 22.160884 15.139487 22.228617 15.190287 C 22.364084 15.444287 22.567466 15.571659 22.838399 15.571659 C 23.126266 15.571659 23.701826 15.359889 24.565426 14.936556 C 25.445958 14.49629 26.284135 13.929117 27.080001 13.234851 C 27.875867 12.523652 28.273726 11.88834 28.273726 11.329541 C 28.273726 11.024741 28.096025 10.711796 27.740426 10.390063 C 27.401759 10.06833 27.029581 9.9074056 26.623181 9.9074056 C 25.708782 9.9074056 24.658835 10.271196 23.473503 10.999329 C 22.28817 11.710528 21.254999 12.63362 20.374467 13.768152 C 19.510868 14.885751 19.078939 15.944086 19.078939 16.943152 C 19.078939 18.534884 19.731026 19.330603 21.034892 19.330603 C 22.135557 19.330603 23.5582 18.865121 25.302332 17.933789 C 26.426552 17.322562 27.434626 16.682435 28.389998 16.028996 C 28.117283 16.611433 27.969352 17.107759 27.969352 17.501774 C 27.969352 18.229907 28.138665 18.805984 28.477332 19.229317 C 28.832931 19.65265 29.213498 19.863904 29.619897 19.863904 C 30.04323 19.863904 30.407538 19.821963 30.712337 19.737297 C 31.559003 19.466363 33.049268 18.467262 35.182865 16.740063 C 35.978731 16.113531 36.825296 15.402209 37.722762 14.606344 C 38.559058 13.864722 39.09068 13.38315 39.427051 13.067936 C 39.65996 12.978196 39.891648 12.892428 40.135535 12.752193 C 40.812867 12.345794 41.422497 11.863019 41.964364 11.30422 C 42.50623 10.728487 42.997392 10.144538 43.437659 9.5518717 C 43.720777 9.1848666 43.883875 8.9103322 44.082581 8.6082601 C 44.141724 8.6001246 44.441746 8.5671071 44.478939 8.5612345 C 44.817605 8.5104346 44.986918 8.4171316 44.986918 8.281665 C 44.986918 8.121823 44.821484 7.9921696 44.547152 7.8822062 C 44.718274 7.5706497 44.860311 7.2984566 44.860311 7.2150635 C 44.860311 7.1134636 44.792172 7.0542299 44.656706 7.0372965 C 44.555106 7.0372965 44.419862 7.1216947 44.250529 7.2910278 C 44.171447 7.3807971 44.029649 7.4971365 43.937887 7.5923014 C 43.39914 7.369473 42.719416 7.2197009 41.87548 7.1551188 C 43.38696 5.9320961 44.987708 4.8375842 46.68914 3.887618 C 48.721138 2.7530858 50.16004 2.1859131 51.006706 2.1859131 C 51.142172 2.1859131 51.210311 2.2535349 51.210311 2.3890015 C 51.210311 2.9478009 50.42298 4.1162157 48.848181 5.8942139 C 47.273383 7.6722121 45.461268 9.5011026 43.412337 11.380701 C 41.363406 13.260299 39.305969 14.970205 37.240104 16.511137 C 35.17424 18.035135 33.709656 18.83976 32.846057 18.924426 C 32.236458 18.99216 31.931384 19.135791 31.931384 19.355924 C 31.931384 19.491391 32.016299 19.618763 32.185632 19.737297 C 33.032298 20.194496 33.599471 20.423043 33.887337 20.423043 C 34.429203 20.423043 35.063998 20.262118 35.792131 19.940385 C 36.537196 19.618652 37.05404 19.364424 37.341907 19.178158 C 39.272305 17.908159 41.507443 16.062492 44.047441 13.641028 C 46.197972 11.592097 48.086096 9.4922019 49.711694 7.3416707 C 51.354226 5.1911396 52.17511 3.5488551 52.17511 2.4143229 C 52.17511 1.1781908 51.37939 0.56017253 49.787659 0.56017253 z M 99.063721 1.6779338 C 98.741988 1.6779338 98.250825 1.7791081 97.590426 1.9823079 C 96.59136 2.5241741 94.89823 3.887583 92.510632 6.0719808 C 90.139968 8.2563786 87.913218 10.37305 85.83042 12.421981 C 85.037888 13.195182 85.074925 13.138929 84.564347 13.630176 C 82.563055 15.010015 80.949919 16.014992 79.810632 16.562297 C 79.844499 16.240564 80.047365 15.817023 80.419897 15.29209 C 80.640031 14.98729 80.851801 14.716286 81.055001 14.47922 C 81.258201 14.22522 81.596827 13.818972 82.070959 13.260173 C 82.545092 12.701373 82.960245 12.201822 83.315845 11.761556 C 83.552911 11.558356 83.671379 11.372267 83.671379 11.202934 C 83.671379 11.033601 83.620533 10.906228 83.518933 10.821562 C 83.417333 10.719962 83.315642 10.660728 83.214042 10.643795 C 83.027776 10.440595 82.866851 10.338904 82.731384 10.338904 C 82.595918 10.338904 82.443381 10.423819 82.274048 10.593152 C 82.087781 10.152886 81.83407 9.9243389 81.512337 9.9074056 C 80.665671 9.9074056 79.66657 10.229255 78.515104 10.872721 C 78.250777 11.022638 78.010825 11.200862 77.757528 11.363647 C 77.745431 11.352959 77.740804 11.339845 77.727555 11.329541 C 77.489923 11.506106 77.24803 11.67451 77.009253 11.848889 C 76.942995 11.89686 76.875732 11.943617 76.810299 11.99255 C 74.065878 13.987199 71.250263 15.846253 68.355001 17.552934 C 68.084068 17.654534 67.881202 17.704862 67.745736 17.704862 C 67.627202 17.704862 67.525511 17.679698 67.440845 17.628898 C 67.356178 17.561165 67.313721 17.485155 67.313721 17.400488 C 67.313721 16.875555 67.838436 15.952464 68.888302 14.631665 C 69.938167 13.310866 71.03896 12.099994 72.190426 10.999329 C 73.358824 9.8986631 74.104215 9.3398785 74.425948 9.3229451 C 75.154081 9.2890785 76.491808 9.1706111 78.43914 8.9674113 C 80.403404 8.7472782 81.546138 8.6120345 81.867871 8.5612345 C 82.206537 8.5104346 82.37585 8.4171316 82.37585 8.281665 C 82.37585 8.0953986 82.189761 7.9428618 81.817228 7.8243286 C 81.055229 7.3501958 79.835969 7.1132609 78.15957 7.1132609 L 76.864042 7.1385824 C 76.626976 7.1385824 76.508508 7.0793486 76.508508 6.9608154 C 76.525442 6.8253489 76.576287 6.6224834 76.660954 6.3515503 L 77.296057 5.4621989 C 77.431524 5.2420658 77.499146 5.089529 77.499146 5.0048625 C 77.499146 4.7508627 77.194072 4.6240072 76.584473 4.6240072 C 75.974873 4.6240072 75.619471 4.7256983 75.517871 4.9288981 L 73.765523 7.2657064 C 71.530326 7.4350395 69.532122 7.64681 67.771057 7.9008097 C 66.026926 8.1548095 65.095446 8.2900532 64.976912 8.3069865 C 64.858379 8.3239198 64.773464 8.3412128 64.722664 8.3581462 C 64.671864 8.3581462 64.612631 8.3665343 64.544897 8.3834676 C 64.477164 8.3834676 64.443612 8.4170202 64.443612 8.4847534 C 64.443612 8.6879532 64.705711 8.8404899 65.230644 8.9420898 C 65.298377 9.4500893 66.458404 9.7043172 68.710535 9.7043172 L 70.310954 9.6531576 C 70.666553 9.6531576 70.844255 9.7040031 70.844255 9.805603 C 70.844255 9.9072029 70.768245 10.017282 70.615845 10.135815 C 69.741209 10.910232 68.97258 11.67389 68.294023 12.428699 C 66.579699 13.673687 65.108469 14.634718 63.960954 15.216125 C 63.859354 15.266925 63.791732 15.29209 63.757865 15.29209 C 63.723999 15.29209 63.706706 15.275314 63.706706 15.241447 C 63.706706 15.20758 63.800009 14.979034 63.986275 14.555701 C 64.189475 14.115434 64.384469 13.480123 64.570736 12.650391 C 64.757002 11.820658 64.849788 10.898083 64.849788 9.8820841 C 64.849788 9.712751 64.612854 9.5686024 64.138721 9.4500692 C 63.664588 9.3146026 63.325962 9.2469808 63.122762 9.2469808 C 62.919562 9.2469808 62.691016 9.4162938 62.437016 9.7549601 C 61.45181 10.640106 60.589532 11.379889 59.79325 12.041125 C 58.994245 12.6087 58.145478 13.22293 57.128296 13.996562 C 55.942964 14.894027 54.986319 15.588573 54.258187 16.079639 C 53.546988 16.570705 52.928969 16.934495 52.404036 17.171562 C 51.896037 17.408628 51.540118 17.527096 51.336918 17.527096 C 51.150652 17.527096 51.057865 17.451086 51.057865 17.298686 C 51.057865 17.010819 51.108711 16.672193 51.210311 16.282727 C 51.261111 16.147261 51.353897 15.986336 51.489364 15.800069 L 51.844897 15.266768 C 51.963431 15.114369 52.150037 14.89421 52.404036 14.606344 C 52.658036 14.318477 52.886583 14.064249 53.089783 13.844116 C 53.292983 13.60705 53.597539 13.268424 54.003939 12.828158 C 54.427272 12.370958 54.799967 11.96471 55.1217 11.609111 C 55.189433 11.524444 55.223503 11.414365 55.223503 11.278898 C 55.223503 11.143432 55.138588 11.033352 54.969255 10.948686 L 54.258187 10.745597 C 54.207387 10.711731 54.097308 10.694954 53.927974 10.694954 C 53.775575 10.694954 53.58058 10.779353 53.343514 10.948686 C 52.073515 11.981618 50.456395 13.184102 48.492131 14.555701 L 48.365523 14.631665 C 48.34859 14.631665 48.339685 14.614889 48.339685 14.581022 C 48.339685 14.547156 48.449764 14.394619 48.669897 14.123686 L 50.575208 11.481986 C 50.659874 11.363453 50.702332 11.244986 50.702332 11.126453 C 50.702332 10.957119 50.541407 10.804583 50.219674 10.669116 C 49.914874 10.53365 49.694715 10.466028 49.559249 10.466028 C 49.372982 10.466028 49.118754 10.702963 48.797021 11.177096 C 48.492222 11.651228 48.111138 12.25247 47.653939 12.980603 C 47.213673 13.708736 46.790648 14.275908 46.384249 14.682308 C 45.876249 15.410441 44.995615 16.350309 43.74255 17.501774 C 43.657883 17.637241 43.615426 17.789777 43.615426 17.959111 C 43.615426 18.46711 43.894818 18.721338 44.453617 18.721338 C 44.656817 18.721338 44.82613 18.67888 44.961597 18.594214 C 45.774396 18.170881 47.654132 16.731462 50.600529 14.276131 C 50.702129 14.191465 50.752974 14.165783 50.752974 14.19965 C 50.752974 14.216583 50.702129 14.301498 50.600529 14.453898 L 49.508089 15.952515 C 49.10169 16.528247 48.898824 17.078644 48.898824 17.603577 C 48.898824 18.992109 49.550395 19.686137 50.85426 19.686137 C 51.531593 19.686137 52.717301 19.025661 54.410632 17.704862 C 56.039309 16.447073 57.240205 15.452832 58.070357 14.686442 C 58.09398 14.674581 58.121269 14.670121 58.144255 14.656986 L 61.4717 12.091768 C 61.708766 11.905502 61.912149 11.812199 62.081482 11.812199 C 62.267748 11.812199 62.360535 11.871433 62.360535 11.989966 C 62.360535 12.430232 62.25936 13.023086 62.05616 13.768152 C 61.852961 14.496284 61.497042 15.224382 60.989042 15.952515 C 60.497976 16.663714 59.955968 17.019116 59.363302 17.019116 C 58.787569 17.019116 58.347252 16.875484 58.042452 16.587618 C 57.940852 16.469085 57.839678 16.324936 57.738078 16.155603 C 57.653411 15.969337 57.610954 15.834093 57.610954 15.749426 C 57.407754 15.749426 57.238441 15.817048 57.102974 15.952515 C 56.984441 16.071048 56.925208 16.206292 56.925208 16.358691 C 56.925208 18.272156 57.720927 19.229317 59.312659 19.229317 C 59.956125 19.229317 60.861923 18.881786 62.030322 18.18752 C 63.198721 17.493254 64.291126 16.731604 65.307125 15.901872 C 65.674877 15.600436 65.959901 15.354146 66.301896 15.069881 C 65.683751 16.090167 65.357768 16.908571 65.357768 17.501774 C 65.357768 18.229907 65.527081 18.805984 65.865747 19.229317 C 66.221347 19.65265 66.60243 19.863904 67.00883 19.863904 C 67.432163 19.863904 67.79647 19.821963 68.10127 19.737297 C 68.908462 19.478995 70.318406 18.538015 72.295329 16.956071 C 72.113103 17.307433 72.012659 17.603627 72.012659 17.831986 C 72.012659 18.272253 72.11435 18.610879 72.31755 18.847945 C 72.520749 19.085012 72.690062 19.220772 72.825529 19.254639 C 72.944062 19.305439 73.045753 19.338991 73.13042 19.355924 C 73.638419 19.355924 74.298895 19.068144 75.111694 18.492411 C 75.941427 17.899745 76.525376 17.434264 76.864042 17.095597 C 77.202708 16.739998 77.482101 16.443312 77.702234 16.206246 C 77.769967 16.138513 77.812425 16.10496 77.829358 16.10496 C 77.863225 16.10496 77.880001 16.130125 77.880001 16.180924 L 77.676912 17.806665 C 77.676912 18.331598 77.744534 18.695905 77.880001 18.899105 C 78.015467 19.102305 78.244014 19.203479 78.565747 19.203479 C 78.68425 19.203479 78.892262 19.118472 79.144006 18.992122 C 78.600199 19.54481 78.540539 19.595966 77.854679 20.295919 C 77.685346 20.448319 77.600431 20.558398 77.600431 20.626131 C 77.600431 20.693864 77.693734 20.727934 77.880001 20.727934 C 78.218667 20.6602 79.209381 20.355127 80.851912 19.813261 C 81.800178 19.322195 83.349676 17.900069 85.500208 15.546338 L 90.935535 9.6025146 C 91.172601 9.3315816 91.934768 8.5017928 93.2217 7.1132609 C 94.508632 5.724729 95.16072 5.0307007 95.177653 5.0307007 L 95.202974 5.0560221 C 95.202974 5.1068221 95.143741 5.2252895 95.025208 5.411556 L 93.831482 6.9608154 C 92.629216 8.7896136 91.536812 10.652573 90.554679 12.549105 C 89.572547 14.428703 88.912071 15.986589 88.573405 17.222721 C 88.573405 17.967787 88.717554 18.585806 89.00542 19.076872 C 89.174753 19.364738 89.360842 19.50837 89.564042 19.50837 C 89.784175 19.50837 89.936712 19.398291 90.021379 19.178158 C 90.529378 18.416158 91.89227 16.765486 94.110535 14.225488 C 94.669334 13.565089 96.117141 12.134058 98.453939 9.9327271 C 100.80767 7.731396 102.45886 6.2075789 103.40712 5.3609131 C 104.37232 4.497314 104.8551 4.0821612 104.8551 4.1160278 C 104.8551 4.1498945 104.77857 4.2515856 104.62617 4.4209188 L 102.18808 7.1639038 C 100.69795 8.8233688 99.351313 10.372867 98.149048 11.812199 C 97.234649 12.912864 96.591466 13.734265 96.218933 14.276131 C 95.863333 14.817997 95.490638 15.427627 95.101172 16.10496 C 94.728639 16.782293 94.491704 17.366242 94.390104 17.857308 C 94.288504 18.331441 94.237659 18.848285 94.237659 19.407084 C 94.406992 20.575483 94.694772 21.295192 95.101172 21.566125 C 95.321305 21.701592 95.507911 21.78599 95.660311 21.819857 C 95.829644 21.870657 96.058191 21.896338 96.346057 21.896338 C 96.633924 21.896338 96.777555 21.836587 96.777555 21.718054 L 96.701591 21.464323 C 96.532258 20.854724 96.447343 19.974089 96.447343 18.822624 C 96.447343 18.145291 97.065361 16.943324 98.301493 15.216125 C 99.537625 13.471994 100.89265 11.744795 102.36584 10.03453 C 103.83904 8.3242647 105.19355 6.7239209 106.42968 5.2337891 C 107.66581 3.7267239 108.28383 2.8377015 108.28383 2.5667684 C 108.28383 2.4482352 108.16536 2.3213796 107.9283 2.1859131 C 107.69123 2.0335132 107.50514 1.9569865 107.36967 1.9569865 C 107.25114 1.9569865 107.10699 2.0502895 106.93766 2.236556 C 106.76833 2.4058892 106.62418 2.4902873 106.50564 2.4902873 L 106.15011 2.3890015 C 105.55744 2.3890015 104.68571 2.8377068 103.53425 3.7351725 C 102.38278 4.615705 100.71482 6.0378309 98.53042 8.0020955 C 96.362955 9.9663602 94.610075 11.490694 93.272343 12.574426 C 93.238476 12.608293 93.2217 12.574224 93.2217 12.472624 C 93.2217 12.421824 93.246864 12.337426 93.297664 12.218892 L 94.847441 9.2976237 C 95.287707 8.3324247 96.786359 6.0212763 99.34329 2.36368 C 99.49569 2.2112802 99.5717 2.0755197 99.5717 1.9569865 C 99.5717 1.77072 99.402387 1.6779338 99.063721 1.6779338 z M 127.63872 1.8810221 C 126.79205 1.8810221 125.59796 2.6007316 124.05703 4.0400635 C 122.53303 5.462462 121.21259 6.8845879 120.095 8.3069865 C 118.9774 9.7124517 118.427 10.474619 118.44393 10.593152 C 118.24073 10.135952 117.98651 9.9074056 117.68171 9.9074056 C 116.83504 9.9074056 115.84484 10.229255 114.71031 10.872721 C 113.57578 11.516187 112.53422 12.277838 111.58595 13.15837 C 111.37088 13.354241 111.18987 13.556231 110.98961 13.754716 C 109.37573 14.840053 107.93941 15.75062 106.88702 16.282727 C 105.37995 17.027793 103.98299 17.400488 102.69606 17.400488 C 102.49286 17.332755 102.39117 17.163442 102.39117 16.892509 C 102.39117 16.604643 102.52641 16.240335 102.79734 15.800069 C 103.06828 15.34287 103.26327 15.114323 103.3818 15.114323 C 103.50034 15.114323 103.59312 15.139487 103.66086 15.190287 C 103.79632 15.444287 103.9997 15.571659 104.27064 15.571659 C 104.5585 15.571659 105.13407 15.359889 105.99766 14.936556 C 106.8782 14.49629 107.71637 13.929117 108.51224 13.234851 C 109.30811 12.523652 109.70648 11.88834 109.70648 11.329541 C 109.70648 11.024741 109.52826 10.711796 109.17266 10.390063 C 108.834 10.06833 108.46182 9.9074056 108.05542 9.9074056 C 107.14102 9.9074056 106.09107 10.271196 104.90574 10.999329 C 103.72041 11.710528 102.68724 12.63362 101.80671 13.768152 C 100.94311 14.885751 100.51169 15.944086 100.51169 16.943152 C 100.51169 18.534884 101.16327 19.330603 102.46713 19.330603 C 103.5678 19.330603 104.99044 18.865121 106.73457 17.933789 C 107.36008 17.593704 107.92866 17.239461 108.5019 16.886308 C 108.3033 17.265236 108.18203 17.590551 108.18203 17.831986 C 108.18203 18.272253 108.28372 18.610879 108.48692 18.847945 C 108.69012 19.085012 108.85943 19.220772 108.9949 19.254639 C 109.11343 19.305439 109.21512 19.338991 109.29979 19.355924 C 109.80779 19.355924 110.46826 19.068144 111.28106 18.492411 C 112.1108 17.899745 112.69526 17.434264 113.03393 17.095597 C 113.37259 16.739998 113.65199 16.443312 113.87212 16.206246 C 113.93985 16.138513 113.98179 16.10496 113.99873 16.10496 C 114.03259 16.10496 114.04989 16.130125 114.04989 16.180924 C 114.04989 16.214791 113.98175 16.503088 113.84628 17.044954 C 113.72775 17.569887 113.66851 17.967747 113.66851 18.23868 C 113.66851 18.509613 113.80427 18.746548 114.07521 18.949748 C 114.36307 19.152948 114.67602 19.279803 115.01469 19.330603 C 115.37028 19.330603 115.70052 19.288146 116.00532 19.203479 C 116.95359 18.915613 118.42708 17.967356 120.42521 16.358691 C 120.85277 16.016643 121.34267 15.603408 121.80755 15.218709 C 121.33418 16.068158 121.06031 16.76377 121.06031 17.248043 C 121.06031 18.636575 121.71188 19.330603 123.01575 19.330603 C 123.37135 19.330603 123.70158 19.288146 124.00638 19.203479 C 124.74861 18.978159 125.82385 18.334752 127.20929 17.300236 C 127.13261 17.500135 127.0801 17.683849 127.0801 17.831986 C 127.0801 18.272253 127.18127 18.610879 127.38447 18.847945 C 127.58767 19.085012 127.75699 19.220772 127.89245 19.254639 C 128.01099 19.305439 128.11268 19.338991 128.19734 19.355924 C 128.70534 19.355924 129.36582 19.068144 130.17862 18.492411 C 131.00835 17.899745 131.59282 17.434264 131.93148 17.095597 C 132.27015 16.739998 132.54954 16.443312 132.76967 16.206246 C 132.83741 16.138513 132.87935 16.10496 132.89628 16.10496 C 132.93015 16.10496 132.94744 16.130125 132.94744 16.180924 L 132.74384 17.806665 C 132.74384 18.331598 132.81197 18.695905 132.94744 18.899105 C 133.08291 19.102305 133.31145 19.203479 133.63319 19.203479 C 133.95492 19.203479 134.76742 18.737997 136.07128 17.806665 C 136.61315 17.417199 137.22278 16.951717 137.90011 16.409851 C 138.59438 15.851052 139.20401 15.351501 139.72894 14.911235 C 140.2708 14.454035 140.82959 13.979649 141.40532 13.488582 C 141.98106 12.997516 142.36214 12.667278 142.5484 12.497945 C 142.7516 12.328612 142.92092 12.18498 143.05638 12.066447 C 143.19185 11.947914 143.25947 11.803765 143.25947 11.634432 C 143.25947 11.465099 143.18346 11.321467 143.03106 11.202934 C 139.32267 13.946131 136.60475 15.732564 134.87756 16.562297 C 134.91142 16.240564 135.1148 15.817023 135.48734 15.29209 C 135.70747 14.98729 135.91924 14.716286 136.12244 14.47922 C 136.32564 14.22522 136.66427 13.818972 137.1384 13.260173 C 137.61253 12.701373 138.02717 12.201822 138.38277 11.761556 C 138.61983 11.558356 138.7383 11.372267 138.7383 11.202934 C 138.7383 11.033601 138.68746 10.906228 138.58586 10.821562 C 138.48426 10.719962 138.38308 10.660728 138.28148 10.643795 C 138.09522 10.440595 137.93429 10.338904 137.79882 10.338904 C 137.66336 10.338904 137.51082 10.423819 137.34149 10.593152 C 137.15522 10.152886 136.90099 9.9243389 136.57926 9.9074056 C 135.73259 9.9074056 134.73349 10.229255 133.58203 10.872721 C 132.44749 11.516187 131.41484 12.277838 130.48351 13.15837 C 130.36947 13.264118 130.2762 13.373804 130.16622 13.480314 C 128.18238 14.795433 126.17357 16.001154 124.13351 17.070276 C 123.84564 17.171876 123.64226 17.222721 123.52373 17.222721 C 123.32053 17.222721 123.21884 17.129418 123.21884 16.943152 C 123.21884 16.756885 123.28697 16.545115 123.42244 16.308049 C 123.64257 15.715382 124.07399 14.987285 124.71745 14.123686 C 125.37785 13.243153 125.86901 12.625135 126.19075 12.269535 C 126.52941 11.913936 126.77525 11.65132 126.92765 11.481986 C 127.09699 11.312653 127.18138 11.185798 127.18138 11.101131 C 127.18138 11.016465 127.13054 10.948843 127.02894 10.898043 C 126.70721 10.762576 126.36858 10.694954 126.01298 10.694954 C 125.65738 10.694954 125.32714 10.787741 125.02234 10.974007 C 124.81914 11.058674 124.40451 11.490603 123.77797 12.269535 C 123.75405 12.298633 123.73105 12.334635 123.70718 12.364103 C 121.33407 13.978698 119.14995 15.388257 117.30085 16.435173 C 116.42032 16.943172 115.92077 17.196883 115.80223 17.196883 C 115.70063 17.196883 115.64979 17.171719 115.64979 17.120919 C 115.64979 16.528253 116.25103 15.469917 117.4533 13.945919 C 118.67249 12.42192 120.4757 10.576254 122.8633 8.4087891 C 123.89623 7.4605234 124.73441 6.673192 125.37788 6.0466593 C 126.03828 5.4201266 126.64791 4.7428746 127.20671 4.014742 C 127.78244 3.2866094 128.07022 2.7105318 128.07022 2.2871989 C 128.07022 2.0162658 127.92659 1.8810221 127.63872 1.8810221 z M 22.152653 3.0747477 C 20.442388 3.091681 18.486642 3.5655508 16.285311 4.4968831 C 14.08398 5.4112822 12.026543 6.5545326 10.113078 7.9261312 C 8.2165464 9.2807965 6.6162026 10.838683 5.3123372 12.599748 C 3.9915386 14.343879 3.3310628 15.977776 3.3310628 17.501774 C 3.3310628 17.84044 3.356744 18.179066 3.4075439 18.517733 C 3.678477 19.990931 4.3725053 20.727934 5.4901042 20.727934 C 6.33677 20.727934 7.3783292 20.329557 8.6144613 19.533691 C 9.8675267 18.754759 10.925862 17.967428 11.789461 17.171562 C 12.65306 16.358763 13.347089 15.664734 13.872021 15.089001 C 14.413888 14.513269 15.049199 13.861181 15.777332 13.133049 C 16.505464 12.387983 16.877643 12.015287 16.894576 12.015287 C 16.928443 12.015287 16.945736 12.03258 16.945736 12.066447 C 16.945736 12.08338 16.928443 12.125321 16.894576 12.193054 L 16.513721 12.70155 L 9.2495646 21.36252 C 9.1140981 21.531854 8.8766465 21.659226 8.5379801 21.743892 C 6.1673159 22.455092 4.2791916 23.479358 2.8737264 24.81709 C 1.4682612 26.171755 0.75745659 27.306101 0.74052327 28.2205 C 0.75745659 28.609966 0.96871028 28.906651 1.3751099 29.109851 C 1.7645761 29.329984 2.1797289 29.440063 2.6199951 29.440063 C 4.33026 28.932064 5.9306039 28.144733 7.4207357 27.077934 C 8.081135 26.603801 8.7667752 26.010947 9.4779744 25.299748 C 10.206107 24.588548 10.815737 23.944849 11.306803 23.369116 C 11.814803 22.793383 12.390364 22.056898 13.03383 21.159432 C 13.694229 20.2789 14.219461 19.542414 14.608927 18.949748 C 15.015327 18.374015 15.540042 17.60346 16.183508 16.638261 C 16.826974 15.656129 17.326525 14.911255 17.682125 14.403255 C 18.901324 12.625257 20.958761 10.110726 23.854358 6.8595296 C 24.565557 6.2160636 24.920959 5.7165127 24.920959 5.3609131 L 24.895638 5.2591105 C 24.844838 5.0897774 24.565446 4.9204643 24.057446 4.7511312 C 24.07438 4.7172646 24.082768 4.6580308 24.082768 4.5733643 C 24.082768 4.3024312 23.896678 3.9889696 23.524146 3.63337 C 23.168546 3.260837 22.719841 3.0747477 22.177974 3.0747477 L 22.152653 3.0747477 z M 23.041488 4.8529338 C 23.193887 4.8529338 23.269897 4.8864863 23.269897 4.9542196 C 23.269897 5.0050195 23.219569 5.0815463 23.117969 5.1831462 C 19.443439 8.4512762 15.828116 11.473746 12.272119 14.25081 C 8.7330561 17.01094 6.4890128 18.391125 5.5407471 18.391125 C 5.4560805 18.391125 5.4141398 18.365444 5.4141398 18.314644 C 5.4141398 18.246911 5.4393042 18.179289 5.4901042 18.111556 C 6.4214366 16.350491 7.6831544 14.63168 9.2748861 12.955282 C 10.883551 11.26195 12.517447 9.8398241 14.176912 8.6883586 C 15.853311 7.5368931 17.487207 6.6138013 19.078939 5.9195353 C 20.687604 5.208336 22.008555 4.8529338 23.041488 4.8529338 z M 129.51819 6.3003906 C 129.12873 6.3003906 128.62918 6.5462304 128.01958 7.0372965 C 127.40998 7.5114294 127.10542 8.0020754 127.10542 8.5100749 C 127.10542 8.8318079 127.25744 9.0184139 127.56224 9.0692139 C 127.96864 9.0692139 128.38379 8.9334534 128.80712 8.6625203 C 129.24739 8.374654 129.53517 8.1544954 129.67064 8.0020955 C 129.82304 7.8327624 129.94989 7.6891305 130.05149 7.5705973 C 130.15309 7.4351308 130.20394 7.2825941 130.20394 7.1132609 C 130.20394 6.9269944 130.08547 6.6900596 129.8484 6.4021932 C 129.7976 6.3344599 129.68753 6.3003906 129.51819 6.3003906 z M 42.639258 8.7793091 C 42.19896 9.1437581 41.7439 9.5145459 41.177332 9.9327271 C 39.771866 10.982593 38.857163 11.507308 38.43383 11.507308 C 38.38303 11.507308 38.357865 11.490532 38.357865 11.456665 C 38.357865 10.828096 38.826781 10.032556 39.72419 9.0847168 C 40.234508 9.0360637 40.406788 9.0345507 41.050208 8.9674113 C 41.960539 8.8653914 42.081714 8.8449592 42.639258 8.7793091 z M 37.001359 9.3353475 C 36.740566 9.9691692 36.605001 10.583742 36.605001 11.177096 C 36.605001 11.668162 36.732373 12.150936 36.986373 12.625069 C 37.149701 12.929948 37.386613 13.126017 37.682971 13.234851 C 35.490405 14.762402 33.253242 16.20501 30.966585 17.552934 C 30.695652 17.654534 30.49227 17.704862 30.356803 17.704862 C 30.23827 17.704862 30.136579 17.679698 30.051912 17.628898 C 29.967246 17.561165 29.924788 17.485155 29.924788 17.400488 C 29.924788 16.875555 30.45002 15.952464 31.499886 14.631665 C 32.549752 13.310866 33.650028 12.099994 34.801493 10.999329 C 35.937519 9.9291593 36.665732 9.3810068 37.001359 9.3353475 z M 26.444897 11.202934 C 26.546497 11.202934 26.597343 11.244874 26.597343 11.329541 C 26.597343 11.634341 26.038558 12.201513 24.920959 13.031246 C 23.820294 13.860978 23.083808 14.276131 22.711275 14.276131 C 22.660475 14.276131 22.635311 14.259355 22.635311 14.225488 C 22.635311 14.022288 23.160026 13.471892 24.209892 12.574426 C 25.259757 11.660027 26.004631 11.202934 26.444897 11.202934 z M 107.87765 11.202934 C 107.97925 11.202934 108.0301 11.244874 108.0301 11.329541 C 108.0301 11.634341 107.47131 12.201513 106.35372 13.031246 C 105.25305 13.860978 104.51605 14.276131 104.14351 14.276131 C 104.09271 14.276131 104.06755 14.259355 104.06755 14.225488 C 104.06755 14.022288 104.59226 13.471892 105.64213 12.574426 C 106.692 11.660027 107.43739 11.202934 107.87765 11.202934 z M 81.359892 11.583789 C 81.410692 11.583789 81.435856 11.600565 81.435856 11.634432 C 81.435856 11.651365 81.402304 11.693823 81.33457 11.761556 L 79.911918 13.005924 C 78.980586 13.835657 77.990389 14.665446 76.940523 15.495178 C 75.907591 16.324911 75.289056 16.740063 75.085856 16.740063 C 75.051989 16.740063 75.035213 16.72277 75.035213 16.688904 C 75.035213 16.401037 75.407909 15.851158 76.152974 15.038359 C 76.914974 14.208626 77.812384 13.429683 78.845317 12.70155 C 79.878249 11.956484 80.716426 11.583789 81.359892 11.583789 z M 117.52926 11.583789 C 117.58006 11.583789 117.60574 11.600565 117.60574 11.634432 C 117.60574 11.651365 117.57167 11.693823 117.50394 11.761556 L 116.10712 13.005924 C 115.15886 13.835657 114.15976 14.665446 113.10989 15.495178 C 112.07696 16.324911 111.45894 16.740063 111.25574 16.740063 C 111.22187 16.740063 111.2051 16.72277 111.2051 16.688904 C 111.2051 16.401037 111.57728 15.851158 112.32234 15.038359 C 113.08434 14.208626 113.98175 13.429683 115.01469 12.70155 C 116.04762 11.956484 116.88579 11.583789 117.52926 11.583789 z M 136.42681 11.583789 C 136.47761 11.583789 136.5033 11.600565 136.5033 11.634432 C 136.5033 11.651365 136.46923 11.693823 136.40149 11.761556 L 134.97936 13.005924 C 134.04803 13.835657 133.05731 14.665446 132.00745 15.495178 C 130.97451 16.324911 130.3565 16.740063 130.1533 16.740063 C 130.11943 16.740063 130.10265 16.72277 130.10265 16.688904 C 130.10265 16.401037 130.47483 15.851158 131.2199 15.038359 C 131.9819 14.208626 132.87931 13.429683 133.91224 12.70155 C 134.94517 11.956484 135.78335 11.583789 136.42681 11.583789 z M 8.3855347 22.200712 C 8.4194013 22.200712 8.4366943 22.218005 8.4366943 22.251872 C 8.1318946 23.030804 7.1154998 24.224383 5.3883016 25.833049 C 3.6780367 27.458647 2.611313 28.271659 2.1879801 28.271659 L 2.1373372 28.271659 C 2.0526707 28.271659 2.0102132 28.220814 2.0102132 28.119214 C 2.0102132 27.712814 2.7891564 26.722101 4.3470215 25.147302 C 5.9048866 23.589437 7.2510025 22.607112 8.3855347 22.200712 z "
       />
  </g>
</svg>
