<?xml version="1.0" encoding="UTF-8" standalone="no"?>
<!-- Created with Inkscape (http://www.inkscape.org/) -->

<svg
   width="512.00006"
   height="512.00006"
   viewBox="0 0 135.46669 135.46669"
   version="1.1"
   id="svg1"
   inkscape:version="1.3.2 (091e20e, 2023-11-25, custom)"
   sodipodi:docname="icon-regular.svg"
   xmlns:inkscape="http://www.inkscape.org/namespaces/inkscape"
   xmlns:sodipodi="http://sodipodi.sourceforge.net/DTD/sodipodi-0.dtd"
   xmlns:xlink="http://www.w3.org/1999/xlink"
   xmlns="http://www.w3.org/2000/svg"
   xmlns:svg="http://www.w3.org/2000/svg">
  <sodipodi:namedview
     id="namedview1"
     pagecolor="#ffffff"
     bordercolor="#000000"
     borderopacity="0.25"
     inkscape:showpageshadow="2"
     inkscape:pageopacity="0.0"
     inkscape:pagecheckerboard="0"
     inkscape:deskcolor="#d1d1d1"
     inkscape:document-units="mm"
     showgrid="false"
     inkscape:zoom="1.0730898"
     inkscape:cx="257.20121"
     inkscape:cy="253.00772"
     inkscape:window-width="1920"
     inkscape:window-height="991"
     inkscape:window-x="-9"
     inkscape:window-y="-9"
     inkscape:window-maximized="1"
     inkscape:current-layer="layer1">
    <inkscape:grid
       id="grid1"
       units="mm"
       originx="4.7517229e-08"
       originy="4.7517226e-08"
       spacingx="0.99999999"
       spacingy="0.99999999"
       empcolor="#0099e5"
       empopacity="0.30196078"
       color="#0099e5"
       opacity="0.14901961"
       empspacing="5"
       dotted="false"
       gridanglex="30"
       gridanglez="30"
       visible="false" />
  </sodipodi:namedview>
  <defs
     id="defs1">
    <linearGradient
       id="linearGradient2"
       inkscape:collect="always">
      <stop
         style="stop-color:#feda75;stop-opacity:1;"
         offset="0"
         id="stop2" />
      <stop
         style="stop-color:#fa7e1e;stop-opacity:1;"
         offset="0.25"
         id="stop4" />
      <stop
         style="stop-color:#d62976;stop-opacity:1;"
         offset="0.5"
         id="stop5" />
      <stop
         style="stop-color:#962fbf;stop-opacity:1;"
         offset="0.75"
         id="stop6" />
      <stop
         style="stop-color:#4f5bd5;stop-opacity:1;"
         offset="1"
         id="stop3" />
    </linearGradient>
    <linearGradient
       inkscape:collect="always"
       xlink:href="#linearGradient2"
       id="linearGradient3"
       x1="0"
       y1="0"
       x2="270.93335"
       y2="270.93335"
       gradientUnits="userSpaceOnUse"
       gradientTransform="scale(0.50483564)" />
  </defs>
  <g
     inkscape:label="Слой 1"
     inkscape:groupmode="layer"
     id="layer1">
    <rect
       style="display:inline;fill:url(#linearGradient3);stroke:none;stroke-width:0;stroke-linecap:round;stroke-linejoin:round;stroke-dasharray:none;stroke-opacity:1"
       id="rect2"
       width="135.467"
       height="135.46667"
       x="9.9705494e-07"
       y="8.3027992e-08"
       ry="20" />
    <path
       id="path9"
       style="fill:none;fill-opacity:1;stroke:#ffffff;stroke-width:8;stroke-linecap:round;stroke-linejoin:round;stroke-dasharray:none;stroke-opacity:1"
       d="M 40.908874,67.733333 67.733487,94.557954 94.5581,67.733333 M 67.733487,40.908712 V 94.557954 M 65.316016,12.513101 c -1.755787,0.09859 -3.509839,0.239824 -5.250892,0.490412 -2.022936,0.284522 -4.030298,0.676671 -6.00884,1.18584 -1.772543,0.438838 -3.509617,1.007209 -5.23372,1.606588 -0.775134,0.306927 -1.646669,0.626986 -2.449083,0.963279 -1.538937,0.656054 -3.05642,1.362988 -4.533031,2.149383 -1.299827,0.685814 -2.560681,1.439083 -3.810513,2.211448 -0.732778,0.499045 -1.559212,1.016542 -2.304398,1.558122 -1.708599,1.222547 -3.356251,2.530164 -4.91637,3.937775 -1.416687,1.264848 -2.758391,2.612583 -4.037622,4.015881 -1.376624,1.530757 -2.681572,3.126475 -3.879144,4.801561 -0.633759,0.840263 -1.186583,1.737227 -1.779712,2.605981 -0.472683,0.804318 -1.034525,1.658275 -1.495406,2.509113 -1.002706,1.77602 -1.910835,3.604892 -2.707805,5.482429 -0.431544,0.984199 -0.825027,2.039269 -1.188858,3.012164 -0.688122,1.956448 -1.298738,3.941422 -1.764077,5.963257 -0.456793,1.878685 -0.784412,3.78664 -1.045195,5.70169 -0.247619,2.051975 -0.414587,4.114816 -0.433341,6.18237 -0.04312,1.826915 0.04398,3.654177 0.179581,5.475856 0.200324,2.201571 0.498907,4.396215 0.958714,6.559522 0.382031,1.907383 0.893584,3.787083 1.474142,5.642998 0.359653,1.041435 0.672588,2.054756 1.085982,3.056931 0.695245,1.839415 1.516414,3.628402 2.405518,5.381591 0.88577,1.700421 1.840922,3.367096 2.896915,4.968062 1.135856,1.749855 2.383979,3.424156 3.70921,5.034816 1.210547,1.44717 2.483411,2.84455 3.832086,4.16424 1.489836,1.45984 3.059212,2.83734 4.703259,4.12117 1.360551,1.07065 2.784219,2.05745 4.233207,3.00435 1.00962,0.61372 2.081013,1.29611 3.158352,1.86141 1.711527,0.96049 3.492264,1.79071 5.295381,2.56363 0.979248,0.38934 1.96827,0.79741 2.937954,1.12549 1.955726,0.69109 3.950021,1.26955 5.970875,1.73684 1.823264,0.42178 3.6692,0.744 5.525137,0.9828 2.067028,0.25353 4.146562,0.40315 6.229315,0.42281 1.780778,0.0333 3.561318,-0.0555 5.336993,-0.18648 2.201036,-0.20538 4.39559,-0.50315 6.558573,-0.96463 1.758204,-0.35219 3.490069,-0.8232 5.206115,-1.34139 1.015801,-0.33807 2.047174,-0.6632 3.017165,-1.04194 1.927506,-0.72283 3.811357,-1.5585 5.646229,-2.49148 1.668144,-0.84843 3.289297,-1.7895 4.865131,-2.79892 1.748131,-1.13773 3.442077,-2.35904 5.051447,-3.6865 1.48818,-1.20957 2.89955,-2.51277 4.25601,-3.8676 1.46975,-1.50167 2.87373,-3.06862 4.16558,-4.72657 1.19133,-1.50307 2.28836,-3.080101 3.31888,-4.697006 1.08477,-1.74482 2.09734,-3.535591 2.98207,-5.390563 0.81427,-1.649455 1.50805,-3.355078 2.16058,-5.074196 0.36306,-1.072917 0.78468,-2.224983 1.0942,-3.353004 0.62286,-2.057398 1.08931,-4.159524 1.46784,-6.274451 0.33727,-2.042664 0.593,-4.099977 0.7001,-6.168243 0.15916,-2.660313 0.12984,-5.335579 -0.10452,-7.980941 -0.79367,-9.202884 -3.9238,-18.147572 -9.04999,-25.836086 -4.03956,-6.085713 -9.3589,-11.399283 -15.446093,-15.428527 -7.694306,-5.117026 -16.642466,-8.238507 -25.846478,-9.020198 -2.332528,-0.210988 -4.686697,-0.236346 -7.035705,-0.153306 -0.03392,4.8e-4 -0.06784,0.0014 -0.101764,0.0025 z" />
  </g>
</svg>
